<svg width="114" height="47" viewBox="0 0 114 47" fill="none" xmlns="http://www.w3.org/2000/svg">
<rect x="-35.5373" y="28.7056" width="145.353" height="18.0517" transform="rotate(-9.29019 -35.5373 28.7056)" fill="#C84D33"/>
<g filter="url(#filter0_d_30_5)">
<rect x="-3.13257" y="0.499985" width="113.956" height="23.196" fill="#EB5535"/>
</g>
<g filter="url(#filter1_d_30_5)">
<path d="M15.1349 16.768C14.4245 16.768 13.769 16.5926 13.1682 16.2418C12.5675 15.891 12.0895 15.4174 11.7343 14.821C11.3791 14.2246 11.2015 13.5757 11.2015 12.8741C11.2015 12.1681 11.3791 11.5147 11.7343 10.914C12.0851 10.322 12.5631 9.85058 13.1682 9.49978C13.7646 9.15336 14.4201 8.98016 15.1349 8.98016C15.8496 8.98016 16.5052 9.15336 17.1016 9.49978C17.7155 9.85497 18.1956 10.3264 18.5421 10.914C18.8929 11.5059 19.0683 12.1593 19.0683 12.8741C19.0683 13.58 18.8929 14.229 18.5421 14.821C18.1913 15.413 17.7111 15.8866 17.1016 16.2418C16.5008 16.5926 15.8453 16.768 15.1349 16.768ZM16.5819 15.3735C17.0161 15.1192 17.3625 14.7706 17.6212 14.3277C17.8799 13.8848 18.0093 13.4003 18.0093 12.8741C18.0093 12.3303 17.8799 11.837 17.6212 11.3941C17.3625 10.9512 17.0161 10.607 16.5819 10.3614C16.1478 10.1159 15.6655 9.9931 15.1349 9.9931C14.5999 9.9931 14.1154 10.1159 13.6813 10.3614C13.2471 10.607 12.9007 10.9512 12.642 11.3941C12.3833 11.837 12.2539 12.3303 12.2539 12.8741C12.2539 13.4046 12.3855 13.8892 12.6486 14.3277C12.9161 14.775 13.2647 15.1236 13.6944 15.3735C14.1329 15.6279 14.6131 15.755 15.1349 15.755C15.6611 15.755 16.1434 15.6279 16.5819 15.3735ZM20.3969 9.1709H21.4362V11.0389H21.4888C21.7344 10.4075 22.1487 9.9054 22.7319 9.53267C23.302 9.16433 23.9532 8.98016 24.6855 8.98016C25.3608 8.98016 25.9856 9.15556 26.5601 9.50636C27.1257 9.84839 27.5774 10.3198 27.915 10.9205C28.2483 11.5081 28.4149 12.1593 28.4149 12.8741C28.4149 13.5932 28.2483 14.251 27.915 14.8473C27.5818 15.4437 27.1301 15.9151 26.5601 16.2615C25.99 16.6079 25.3652 16.7811 24.6855 16.7811C23.9707 16.7811 23.3393 16.6057 22.7911 16.2549C22.243 15.9041 21.8177 15.4108 21.5151 14.775H21.4625V18.682H20.3969V9.1709ZM25.9089 15.4064C26.3518 15.1565 26.7004 14.8079 26.9547 14.3606C27.2091 13.9177 27.3362 13.4222 27.3362 12.8741C27.3362 12.3259 27.2091 11.8326 26.9547 11.3941C26.7004 10.9556 26.3518 10.6114 25.9089 10.3614C25.4748 10.1159 24.9902 9.9931 24.4553 9.9931C23.9247 9.9931 23.4467 10.1159 23.0214 10.3614C22.5785 10.6158 22.2342 10.96 21.9887 11.3941C21.7387 11.8326 21.6138 12.3259 21.6138 12.8741C21.6138 13.4178 21.7387 13.9133 21.9887 14.3606C22.2386 14.8035 22.5829 15.1521 23.0214 15.4064C23.4555 15.6564 23.9334 15.7813 24.4553 15.7813C24.9815 15.7813 25.466 15.6564 25.9089 15.4064ZM31.3419 16.2286C30.7412 15.8822 30.261 15.4064 29.9015 14.8013C29.5463 14.2049 29.3687 13.545 29.3687 12.8214C29.3687 12.1111 29.5463 11.4599 29.9015 10.8679C30.2566 10.2759 30.7368 9.80893 31.3419 9.46689C31.9471 9.12486 32.6158 8.95385 33.3481 8.95385C34.076 8.95385 34.7447 9.12486 35.3542 9.46689C35.9681 9.80893 36.4483 10.2781 36.7947 10.8745C37.1455 11.4752 37.3209 12.133 37.3209 12.8477C37.3209 12.9574 37.3165 13.0736 37.3078 13.1964H30.4869C30.5176 13.6612 30.671 14.0909 30.9473 14.4856C31.2148 14.8714 31.5612 15.1806 31.9865 15.413C32.4031 15.641 32.8614 15.755 33.3612 15.755C33.9269 15.755 34.44 15.6103 34.9004 15.3209C35.3652 15.0315 35.7094 14.6412 35.9331 14.1501H37.0907C36.8188 14.9262 36.3431 15.5533 35.6634 16.0313C34.9749 16.5136 34.2032 16.7548 33.3481 16.7548C32.6202 16.7548 31.9515 16.5794 31.3419 16.2286ZM36.1764 12.3347C36.1326 11.8962 35.9769 11.495 35.7094 11.131C35.4419 10.7627 35.1021 10.4776 34.6899 10.2759C34.2602 10.0654 33.8085 9.96021 33.3349 9.96021C32.857 9.96021 32.4031 10.0654 31.9734 10.2759C31.5656 10.4776 31.2279 10.7627 30.9604 11.131C30.7017 11.4906 30.5483 11.8918 30.5 12.3347H36.1764ZM38.6693 9.15775H45.1811V16.5641H44.1287V10.1773H39.7217V16.5641H38.6693V9.15775ZM50.4036 10.1641H49.1342V9.15775H50.4036V7.06609H51.4561V9.15775H52.8308V10.1641H51.4561V15.5511H52.7321V16.5641H50.4036V10.1641ZM57.4548 16.768C56.7444 16.768 56.0888 16.5926 55.4881 16.2418C54.8873 15.891 54.4094 15.4174 54.0542 14.821C53.699 14.2246 53.5214 13.5757 53.5214 12.8741C53.5214 12.1681 53.699 11.5147 54.0542 10.914C54.405 10.322 54.8829 9.85058 55.4881 9.49978C56.0844 9.15336 56.74 8.98016 57.4548 8.98016C58.1695 8.98016 58.8251 9.15336 59.4214 9.49978C60.0354 9.85497 60.5155 10.3264 60.8619 10.914C61.2127 11.5059 61.3881 12.1593 61.3881 12.8741C61.3881 13.58 61.2127 14.229 60.8619 14.821C60.5111 15.413 60.031 15.8866 59.4214 16.2418C58.8207 16.5926 58.1651 16.768 57.4548 16.768ZM58.9018 15.3735C59.3359 15.1192 59.6824 14.7706 59.9411 14.3277C60.1998 13.8848 60.3292 13.4003 60.3292 12.8741C60.3292 12.3303 60.1998 11.837 59.9411 11.3941C59.6824 10.9512 59.3359 10.607 58.9018 10.3614C58.4677 10.1159 57.9854 9.9931 57.4548 9.9931C56.9198 9.9931 56.4352 10.1159 56.0011 10.3614C55.567 10.607 55.2206 10.9512 54.9619 11.3941C54.7032 11.837 54.5738 12.3303 54.5738 12.8741C54.5738 13.4046 54.7054 13.8892 54.9685 14.3277C55.2359 14.775 55.5846 15.1236 56.0143 15.3735C56.4528 15.6279 56.9329 15.755 57.4548 15.755C57.981 15.755 58.4633 15.6279 58.9018 15.3735ZM64.7624 9.1709H65.8674L67.6631 15.1367L69.2614 9.15775H70.2086L71.807 15.1367L73.6026 9.15775L74.6945 9.1709L72.4713 16.5641H71.3005L69.735 10.7035L68.1762 16.5641H66.9988L64.7624 9.1709ZM79.0291 16.768C78.3187 16.768 77.6632 16.5926 77.0624 16.2418C76.4617 15.891 75.9837 15.4174 75.6285 14.821C75.2733 14.2246 75.0957 13.5757 75.0957 12.8741C75.0957 12.1681 75.2733 11.5147 75.6285 10.914C75.9793 10.322 76.4573 9.85058 77.0624 9.49978C77.6588 9.15336 78.3143 8.98016 79.0291 8.98016C79.7439 8.98016 80.3994 9.15336 80.9958 9.49978C81.6097 9.85497 82.0898 10.3264 82.4363 10.914C82.7871 11.5059 82.9625 12.1593 82.9625 12.8741C82.9625 13.58 82.7871 14.229 82.4363 14.821C82.0855 15.413 81.6053 15.8866 80.9958 16.2418C80.395 16.5926 79.7395 16.768 79.0291 16.768ZM80.4761 15.3735C80.9103 15.1192 81.2567 14.7706 81.5154 14.3277C81.7741 13.8848 81.9035 13.4003 81.9035 12.8741C81.9035 12.3303 81.7741 11.837 81.5154 11.3941C81.2567 10.9512 80.9103 10.607 80.4761 10.3614C80.042 10.1159 79.5597 9.9931 79.0291 9.9931C78.4941 9.9931 78.0096 10.1159 77.5755 10.3614C77.1413 10.607 76.7949 10.9512 76.5362 11.3941C76.2775 11.837 76.1481 12.3303 76.1481 12.8741C76.1481 13.4046 76.2797 13.8892 76.5428 14.3277C76.8103 14.775 77.1589 15.1236 77.5886 15.3735C78.0271 15.6279 78.5073 15.755 79.0291 15.755C79.5553 15.755 80.0376 15.6279 80.4761 15.3735ZM84.2911 9.15775H88.7244V10.1641H85.3435V16.5641H84.2911V9.15775ZM89.7505 7.02663H90.8029V12.1308H92.4473L94.3219 9.15775H95.4664L93.5786 12.1308H95.6966V16.5641H94.6442V13.1306H90.8029V16.5641H89.7505V7.02663Z" fill="white"/>
</g>
<defs>
<filter id="filter0_d_30_5" x="-6.12608" y="0.499985" width="119.943" height="29.1831" filterUnits="userSpaceOnUse" color-interpolation-filters="sRGB">
<feFlood flood-opacity="0" result="BackgroundImageFix"/>
<feColorMatrix in="SourceAlpha" type="matrix" values="0 0 0 0 0 0 0 0 0 0 0 0 0 0 0 0 0 0 127 0" result="hardAlpha"/>
<feOffset dy="2.99351"/>
<feGaussianBlur stdDeviation="1.49676"/>
<feComposite in2="hardAlpha" operator="out"/>
<feColorMatrix type="matrix" values="0 0 0 0 0 0 0 0 0 0 0 0 0 0 0 0 0 0 0.25 0"/>
<feBlend mode="normal" in2="BackgroundImageFix" result="effect1_dropShadow_30_5"/>
<feBlend mode="normal" in="SourceGraphic" in2="effect1_dropShadow_30_5" result="shape"/>
</filter>
<filter id="filter1_d_30_5" x="7.45962" y="3.28474" width="91.9788" height="19.1392" filterUnits="userSpaceOnUse" color-interpolation-filters="sRGB">
<feFlood flood-opacity="0" result="BackgroundImageFix"/>
<feColorMatrix in="SourceAlpha" type="matrix" values="0 0 0 0 0 0 0 0 0 0 0 0 0 0 0 0 0 0 127 0" result="hardAlpha"/>
<feOffset/>
<feGaussianBlur stdDeviation="1.87094"/>
<feComposite in2="hardAlpha" operator="out"/>
<feColorMatrix type="matrix" values="0 0 0 0 1 0 0 0 0 0.982414 0 0 0 0 0.978662 0 0 0 1 0"/>
<feBlend mode="normal" in2="BackgroundImageFix" result="effect1_dropShadow_30_5"/>
<feBlend mode="normal" in="SourceGraphic" in2="effect1_dropShadow_30_5" result="shape"/>
</filter>
</defs>
</svg>
