<svg width="42" height="38" viewBox="0 0 42 38" fill="none" xmlns="http://www.w3.org/2000/svg">
<g clip-path="url(#clip0_139_27)">
<path fill-rule="evenodd" clip-rule="evenodd" d="M42 19.2064C42 16.4542 38.5171 13.8473 33.1748 12.2277C34.4087 6.84154 33.8584 2.55761 31.4453 1.18486C30.8882 0.86365 30.2388 0.711498 29.5278 0.711498V2.60157C29.9209 2.60157 30.2388 2.67933 30.5054 2.82134C31.6709 3.48067 32.1733 5.99625 31.7803 9.23201C31.6846 10.0266 31.5308 10.8651 31.3428 11.7205C29.6645 11.3148 27.8325 11.0004 25.9082 10.7975C24.7529 9.23201 23.5532 7.80855 22.3467 6.56428C25.1357 3.9946 27.7539 2.59142 29.5347 2.59142V0.701355C27.1797 0.701355 24.1001 2.3615 20.9829 5.24225C17.8657 2.37841 14.7861 0.735167 12.4312 0.735167V2.62523C14.2017 2.62523 16.8301 4.02165 19.6226 6.57104C18.4229 7.81531 17.2266 9.22863 16.0884 10.7975C14.1538 11.0004 12.3218 11.3148 10.6436 11.7273C10.4453 10.882 10.3018 10.0604 10.1992 9.27259C9.7959 6.03682 10.2949 3.52124 11.4502 2.85177C11.7065 2.69962 12.0415 2.632 12.4346 2.632V0.74531C11.7168 0.74531 11.064 0.897462 10.5 1.21867C8.09375 2.59142 7.55371 6.86858 8.79785 12.2379C3.46582 13.8608 0 16.4609 0 19.2064C0 21.9587 3.48291 24.5656 8.8252 26.1851C7.59131 31.5713 8.1416 35.8552 10.5547 37.228C11.1118 37.5492 11.7612 37.7014 12.4824 37.7014C14.8374 37.7014 17.917 36.0412 21.0342 33.1605C24.1514 36.0243 27.231 37.6675 29.5859 37.6675C30.3037 37.6675 30.9565 37.5154 31.5205 37.1942C33.9268 35.8214 34.4668 31.5443 33.2227 26.175C38.5342 24.5588 42 21.9485 42 19.2064ZM24.9033 19.2064C24.9033 17.0695 23.1533 15.335 20.9897 15.335C18.8296 15.335 17.0762 17.0662 17.0762 19.2064C17.0762 21.3467 18.8262 23.0779 20.9897 23.0779C23.1533 23.0745 24.9033 21.3433 24.9033 19.2064ZM30.854 13.5565C30.5361 14.6486 30.1431 15.7746 29.6987 16.9005C29.3467 16.2242 28.981 15.5446 28.5776 14.8684C28.1846 14.1922 27.7642 13.5295 27.3438 12.887C28.5605 13.0662 29.7329 13.286 30.854 13.5565ZM26.9336 22.5774C26.2671 23.7203 25.5801 24.8056 24.8691 25.8132C23.5942 25.9248 22.3022 25.9823 21 25.9823C19.708 25.9823 18.416 25.9214 17.1479 25.82C16.437 24.8124 15.7432 23.7372 15.0767 22.6011C14.4272 21.4921 13.8359 20.3662 13.2959 19.2301C13.8257 18.094 14.4272 16.9613 15.0664 15.8523C15.7329 14.7095 16.4199 13.6241 17.1309 12.6166C18.4058 12.505 19.6978 12.4475 21 12.4475C22.292 12.4475 23.584 12.5084 24.8521 12.6098C25.563 13.6174 26.2568 14.6926 26.9233 15.8287C27.5728 16.9377 28.1641 18.0636 28.7041 19.1997C28.1641 20.3324 27.5762 21.465 26.9336 22.5774ZM29.6987 21.4752C30.1602 22.6113 30.5532 23.7439 30.8813 24.8462C29.7603 25.1167 28.5776 25.3466 27.354 25.5224C27.7744 24.8699 28.1914 24.2004 28.5879 23.514C28.9775 22.8378 29.3467 22.1514 29.6987 21.4752ZM21.0171 30.5096C20.2207 29.6982 19.4243 28.792 18.6382 27.8013C19.4072 27.8351 20.1968 27.8622 20.9932 27.8622C21.7964 27.8622 22.5928 27.8453 23.3721 27.8013C22.5996 28.792 21.8032 29.6982 21.0171 30.5096ZM14.6494 25.5224C13.4326 25.3432 12.2603 25.1235 11.1392 24.853C11.457 23.7608 11.8501 22.6349 12.2944 21.509C12.6465 22.1852 13.0122 22.8648 13.4155 23.5411C13.8188 24.2207 14.229 24.88 14.6494 25.5224ZM20.9727 7.89984C21.769 8.71132 22.5654 9.61747 23.3516 10.6081C22.5825 10.5743 21.793 10.5473 20.9966 10.5473C20.1934 10.5473 19.397 10.5642 18.6177 10.6081C19.3901 9.61747 20.1865 8.71132 20.9727 7.89984ZM14.6392 12.887C14.2188 13.5396 13.8018 14.2091 13.4053 14.8955C13.0122 15.5717 12.6431 16.2513 12.291 16.9275C11.8296 15.7915 11.4365 14.6588 11.1084 13.5565C12.2329 13.2928 13.4155 13.0662 14.6392 12.887ZM6.89062 23.4904C3.85889 22.2123 1.90039 20.5352 1.90039 19.2064C1.90039 17.8776 3.8623 16.1904 6.89062 14.9225C7.62549 14.6081 8.43213 14.3308 9.2627 14.0671C9.75146 15.7272 10.394 17.455 11.1904 19.2233C10.4043 20.9849 9.76855 22.7025 9.29004 24.3559C8.44238 24.0922 7.63574 23.8048 6.89062 23.4904ZM11.498 35.5915C10.3325 34.9322 9.83008 32.4166 10.2231 29.1808C10.3188 28.3863 10.4727 27.5477 10.6606 26.6923C12.3389 27.098 14.1709 27.4125 16.0952 27.6154C17.2505 29.1808 18.4502 30.6043 19.6567 31.8486C16.8643 34.4149 14.2461 35.8214 12.4653 35.8214C12.0791 35.8113 11.7544 35.7369 11.498 35.5915ZM31.8042 29.1403C32.2075 32.376 31.7085 34.8916 30.5532 35.5611C30.2969 35.7132 29.9619 35.7809 29.5688 35.7809C27.7983 35.7809 25.1699 34.3844 22.3774 31.835C23.5771 30.5908 24.7734 29.1775 25.9116 27.6086C27.8462 27.4057 29.6782 27.0913 31.3564 26.6754C31.5547 27.5308 31.7085 28.3525 31.8042 29.1403ZM35.0991 23.4904C34.3643 23.8048 33.5576 24.0821 32.7271 24.3458C32.2383 22.6856 31.5957 20.9579 30.7993 19.1895C31.5854 17.4279 32.2212 15.7103 32.6997 14.0569C33.5474 14.3207 34.3506 14.6081 35.106 14.9191C38.1377 16.1972 40.0962 17.8743 40.0962 19.203C40.0894 20.5352 38.1309 22.219 35.0991 23.4904Z" fill="#C9BCA8"/>
</g>
<defs>
<clipPath id="clip0_139_27">
<rect width="42" height="37" fill="white" transform="translate(0 0.701355)"/>
</clipPath>
</defs>
</svg>
