<svg width="63" height="38" viewBox="0 0 63 38" fill="none" xmlns="http://www.w3.org/2000/svg">
<g clip-path="url(#clip0_139_13)">
<path fill-rule="evenodd" clip-rule="evenodd" d="M31.5 0C23.1021 0 17.8521 4.22222 15.75 12.6667C18.9014 8.44617 22.5757 6.86306 26.7729 7.91731C29.1724 8.51876 30.8745 10.2661 32.7817 12.2C35.8579 15.3524 39.4468 18.9974 47.25 18.9974C55.648 18.9974 60.8979 14.7752 63 6.33074C59.852 10.5547 56.1777 12.1378 51.977 11.0801C49.5776 10.4786 47.8755 8.73134 45.9683 6.79738C42.8818 3.62942 39.3083 0 31.5 0ZM15.75 18.9974C7.35205 18.9974 2.10205 23.2196 0 31.6641C3.15479 27.4436 6.8291 25.8605 11.0229 26.9147C13.4224 27.5162 15.1245 29.2635 17.0317 31.2026C20.1079 34.3498 23.6968 38 31.5 38C39.8979 38 45.148 33.7778 47.25 25.3333C44.1021 29.5538 40.4277 31.1335 36.2271 30.0723C33.8276 29.4709 32.1255 27.7236 30.2183 25.7896C27.1421 22.6372 23.5532 18.987 15.75 18.987V18.9974Z" fill="#C9BCA8"/>
</g>
<defs>
<clipPath id="clip0_139_13">
<rect width="63" height="38" fill="white"/>
</clipPath>
</defs>
</svg>
