<svg width="37" height="37" viewBox="0 0 37 37" fill="none" xmlns="http://www.w3.org/2000/svg">
<g clip-path="url(#clip0_139_2)">
<rect width="37" height="37" fill="#2A2724"/>
<path fill-rule="evenodd" clip-rule="evenodd" d="M0 0H37V37H0V0Z" fill="#C9BCA8"/>
<path fill-rule="evenodd" clip-rule="evenodd" d="M9.729 30.9207L12.5594 29.2074C13.1044 30.1769 13.6012 30.996 14.7936 30.996C15.9348 30.996 16.6575 30.5503 16.6575 28.8099V16.9855H20.1353V28.8581C20.1353 32.4593 18.0245 34.0974 14.9442 34.0974C12.1619 34.0974 10.548 32.6581 9.729 30.9207ZM22.0232 30.5473L24.8536 28.9093C25.6003 30.1258 26.5669 31.02 28.2802 31.02C29.7195 31.02 30.6409 30.3004 30.6409 29.3067C30.6409 28.1144 29.6984 27.6928 28.1086 26.9973L27.2384 26.6239C24.7301 25.555 23.065 24.215 23.065 21.3846C23.065 18.777 25.0523 16.7897 28.1567 16.7897C30.3669 16.7897 31.9567 17.5606 33.0979 19.572L30.3909 21.3093C29.7948 20.2404 29.1504 19.8189 28.1567 19.8189C27.139 19.8189 26.4916 20.4632 26.4916 21.3093C26.4916 22.3512 27.136 22.7757 28.6265 23.4201L29.4967 23.7935C32.4535 25.0611 34.1156 26.3529 34.1156 29.2586C34.1156 32.3871 31.6556 34.1004 28.3525 34.1004C25.1276 34.1004 23.0409 32.5587 22.0232 30.5473Z" fill="#2A2724"/>
</g>
<defs>
<clipPath id="clip0_139_2">
<rect width="37" height="37" fill="white"/>
</clipPath>
</defs>
</svg>
