<svg width="39" height="38" viewBox="0 0 39 38" fill="none" xmlns="http://www.w3.org/2000/svg">
<g clip-path="url(#clip0_19_624)">
<path d="M7.35319 0.575317H31.8949C35.6157 0.575317 38.624 3.57959 38.624 7.2954V30.8552C38.624 34.571 35.6157 37.5753 31.8949 37.5753H7.35319C3.63236 37.5753 0.624023 34.571 0.624023 30.8552V7.2954C0.624023 3.57959 3.63236 0.575317 7.35319 0.575317Z" fill="#C9BCA8"/>
<path d="M9.17407 26.5228V10.2523C9.17407 10.1416 9.22157 10.0783 9.33241 10.0783C9.60157 10.0783 9.85491 10.0783 10.2191 10.0625C10.5991 10.0467 10.9949 10.0467 11.4224 10.0309C11.8499 10.0151 12.3091 10.0151 12.7999 9.99927C13.2907 9.98346 13.7657 9.98346 14.2407 9.98346C15.5391 9.98346 16.6157 10.1416 17.5024 10.4736C18.2941 10.7424 19.0224 11.1852 19.6241 11.7702C20.1307 12.2762 20.5266 12.8929 20.7799 13.5728C21.0174 14.2369 21.1441 14.9168 21.1441 15.6283C21.1441 16.9882 20.8274 18.1108 20.1941 18.9963C19.5607 19.8818 18.6741 20.5459 17.6449 20.9253C16.5682 21.3206 15.3807 21.4629 14.0824 21.4629C13.7024 21.4629 13.4491 21.4629 13.2907 21.4471C13.1324 21.4313 12.9107 21.4313 12.6099 21.4313V26.507C12.6257 26.6176 12.5466 26.7125 12.4357 26.7283C12.4199 26.7283 12.4041 26.7283 12.3724 26.7283H9.36407C9.23741 26.7283 9.17407 26.6651 9.17407 26.5228ZM12.6257 13.13V18.4429C12.8474 18.4587 13.0532 18.4745 13.2432 18.4745H14.0824C14.6999 18.4745 15.3174 18.3796 15.9032 18.1899C16.4099 18.0476 16.8532 17.7471 17.2016 17.3518C17.5341 16.9565 17.6924 16.4189 17.6924 15.7232C17.7082 15.233 17.5816 14.7429 17.3282 14.3159C17.0591 13.9048 16.6791 13.5886 16.2199 13.4147C15.6341 13.1775 15.0007 13.0826 14.3516 13.0984C13.9399 13.0984 13.5757 13.0984 13.2749 13.1142C12.9582 13.0984 12.7366 13.1142 12.6257 13.13Z" fill="#2A2724"/>
<path d="M31.0243 17.4784C30.5493 17.2254 30.0426 17.0514 29.5043 16.9407C28.9184 16.8142 28.3326 16.7352 27.7309 16.7352C27.4143 16.7194 27.0818 16.7668 26.7809 16.8459C26.5751 16.8933 26.4009 17.004 26.2901 17.1621C26.2109 17.2886 26.1634 17.4467 26.1634 17.589C26.1634 17.7313 26.2268 17.8736 26.3218 18.0001C26.4643 18.1741 26.6543 18.3164 26.8601 18.4271C27.2243 18.6168 27.6043 18.7907 27.9843 18.9489C28.8393 19.2335 29.6626 19.6288 30.4226 20.1031C30.9451 20.4352 31.3726 20.8779 31.6734 21.4155C31.9268 21.9215 32.0534 22.4749 32.0376 23.0442C32.0534 23.7873 31.8318 24.5305 31.4201 25.1472C30.9768 25.7796 30.3593 26.2698 29.6468 26.5544C28.8709 26.8865 27.9209 27.0604 26.7809 27.0604C26.0526 27.0604 25.3401 26.9972 24.6276 26.8548C24.0734 26.76 23.5193 26.586 23.0126 26.3489C22.9018 26.2856 22.8226 26.1749 22.8384 26.0484V23.2972C22.8384 23.2497 22.8543 23.1865 22.9018 23.1548C22.9493 23.1232 22.9968 23.139 23.0443 23.1707C23.6618 23.5343 24.3109 23.7873 25.0076 23.9454C25.6093 24.1036 26.2426 24.1826 26.8759 24.1826C27.4776 24.1826 27.9051 24.1036 28.1901 23.9613C28.4434 23.8506 28.6176 23.5818 28.6176 23.2972C28.6176 23.0758 28.4909 22.8702 28.2376 22.6647C27.9843 22.4591 27.4618 22.2219 26.6859 21.9215C25.8784 21.6369 25.1343 21.2574 24.4376 20.7831C23.9468 20.4352 23.5351 19.9766 23.2343 19.439C22.9809 18.9331 22.8543 18.3796 22.8701 17.8262C22.8701 17.1463 23.0601 16.498 23.4084 15.913C23.8043 15.2805 24.3901 14.7745 25.0709 14.4583C25.8151 14.0788 26.7493 13.9048 27.8734 13.9048C28.5226 13.9048 29.1876 13.9523 29.8368 14.0472C30.3118 14.1104 30.7709 14.2369 31.1984 14.4108C31.2618 14.4266 31.3251 14.4899 31.3568 14.5531C31.3726 14.6164 31.3884 14.6796 31.3884 14.7429V17.3202C31.3884 17.3835 31.3568 17.4467 31.3093 17.4784C31.1668 17.51 31.0876 17.51 31.0243 17.4784Z" fill="#2A2724"/>
</g>
<defs>
<clipPath id="clip0_19_624">
<rect width="38" height="37" fill="white" transform="translate(0.624023 0.575317)"/>
</clipPath>
</defs>
</svg>
