<svg width="81" height="56" viewBox="0 0 81 56" fill="none" xmlns="http://www.w3.org/2000/svg">
<mask id="mask0_139_31" style="mask-type:alpha" maskUnits="userSpaceOnUse" x="0" y="0" width="81" height="56">
<rect y="0.816528" width="80.1152" height="54.6794" fill="#D9D9D9"/>
</mask>
<g mask="url(#mask0_139_31)">
</g>
<g clip-path="url(#clip0_139_31)">
<path d="M24.6762 27.3324C24.6762 27.3324 24.6762 27.3392 24.6762 27.3434L23.7426 31.2313C23.6922 31.4513 23.4635 31.6125 23.1988 31.6125H22.0724C21.989 31.6125 21.9141 31.6658 21.8911 31.7423C20.851 35.1289 19.4427 37.4568 17.5827 38.8543C16.0001 40.0442 14.0495 40.5989 11.4442 40.5989C9.10223 40.5989 7.52412 39.8761 6.18482 38.45C4.41537 36.5647 3.68314 33.4786 4.12622 29.76C4.92606 22.7792 8.698 15.7355 15.9642 15.7355C18.1739 15.7163 19.9088 16.3707 21.1158 17.6767C22.3917 19.0579 23.0405 21.1385 23.0434 23.8611C23.0391 24.1084 22.8248 24.3079 22.5672 24.3079H17.2445C17.0561 24.3079 16.8878 24.1453 16.8907 23.9663C16.8475 22.0838 16.2649 21.1658 15.1083 21.1658C13.0684 21.1658 11.8643 23.8243 11.2256 25.2983C10.3337 27.357 9.8805 29.5921 9.96969 31.8188C10.0114 32.8557 10.1855 34.3134 11.2112 34.9172C12.1204 35.4527 13.418 35.0975 14.2034 34.5046C14.9889 33.9116 15.6204 32.8858 15.8865 31.95C15.9239 31.8202 15.9269 31.7191 15.8908 31.674C15.8535 31.6276 15.7499 31.6166 15.6708 31.6166H14.3041C14.1574 31.6166 14.0121 31.5524 13.9243 31.4486C13.851 31.3611 13.8222 31.2532 13.8481 31.1467L14.7831 27.2518C14.8292 27.0524 15.0176 26.9021 15.2492 26.8748V26.8652H24.2187C24.2404 26.8652 24.2619 26.8652 24.2821 26.8693C24.5151 26.898 24.6791 27.1057 24.6748 27.3324H24.6762Z" fill="#C9BCA8"/>
<path d="M40.1206 22.8639C40.1162 23.1071 39.9019 23.3065 39.6444 23.3065H34.7418C34.421 23.3065 34.1519 23.0565 34.1519 22.7519C34.1519 21.3789 33.6571 20.7109 32.6444 20.7109C31.6316 20.7109 30.9784 21.3079 30.9598 22.3502C30.9382 23.5128 31.6229 24.5688 33.5736 26.3844C36.1415 28.6959 37.17 30.7437 37.1211 33.45C37.0406 37.827 33.939 40.6562 29.2205 40.6562C26.8109 40.6562 24.9695 40.0374 23.7453 38.8175C22.5024 37.5783 21.9327 35.76 22.0522 33.4131C22.0579 33.1699 22.2707 32.9718 22.5283 32.9718H27.5993C27.7374 32.9718 27.874 33.036 27.9661 33.1453C28.0452 33.2396 28.0783 33.3557 28.0582 33.465C28.002 34.312 28.156 34.9445 28.5027 35.2942C28.7257 35.521 29.035 35.6358 29.4219 35.6358C30.3585 35.6358 30.908 35.0005 30.9281 33.8939C30.9454 32.9376 30.6303 32.0989 28.9127 30.4035C26.6944 28.3229 24.7048 26.174 24.7667 22.7942C24.8027 20.8352 25.614 19.0429 27.0512 17.7478C28.5703 16.3789 30.6491 15.6562 33.0615 15.6562C35.4783 15.6726 37.3096 16.3338 38.505 17.6221C39.6372 18.8434 40.1825 20.6071 40.1221 22.8639H40.1206Z" fill="#C9BCA8"/>
<path d="M55.3177 39.8325L55.3493 16.5552C55.3536 16.3107 55.1479 16.1112 54.8904 16.1112H47.302C47.0473 16.1112 46.9351 16.3216 46.8617 16.4609L35.8754 39.6905V39.6946C35.8754 39.6946 35.8725 39.6986 35.8711 39.7C35.7488 39.9855 35.9804 40.2916 36.3027 40.2916H41.6066C41.8929 40.2916 42.0829 40.2082 42.1763 40.0347L43.2293 37.6057C43.3588 37.2819 43.3833 37.252 43.7515 37.252H48.8196C49.172 37.252 49.1793 37.2588 49.1735 37.5894L49.0599 39.8475C49.0556 40.0921 49.2613 40.2916 49.5188 40.2916H54.8774C55.0141 40.2916 55.1422 40.2369 55.227 40.1399C55.3032 40.0538 55.3349 39.9446 55.3177 39.8325ZM45.9295 32.0606C45.8806 32.0606 45.8417 32.0593 45.8102 32.0566C45.731 32.0498 45.6778 31.9773 45.6979 31.9036C45.708 31.8694 45.7224 31.8244 45.744 31.7683L49.5447 22.7451C49.5777 22.6563 49.6195 22.5689 49.6626 22.4842C49.7245 22.3626 49.7993 22.3544 49.8223 22.4445C49.8425 22.5197 49.3864 31.7095 49.3864 31.7095C49.3505 32.0538 49.3347 32.0675 48.9808 32.0962L45.9338 32.062H45.9267L45.9295 32.0606Z" fill="#C9BCA8"/>
<path d="M66.1269 16.1112H62.0989C61.8861 16.1112 61.6472 16.2191 61.5911 16.4623C61.5911 16.4623 55.985 39.8175 55.985 39.8202C55.9606 39.9281 55.9865 40.0347 56.0612 40.1235C56.149 40.2273 56.2943 40.2915 56.4411 40.2915H61.476C61.7465 40.2915 61.9321 40.1645 61.9824 39.9432C61.9824 39.9432 62.5923 37.3038 62.5938 37.2957C62.637 37.0894 62.5621 36.9295 62.3694 36.8325C62.2788 36.7874 62.1881 36.7423 62.0989 36.6973L61.2257 36.2615L60.3568 35.827C60.2446 35.771 60.1324 35.715 60.0216 35.659C59.9655 35.6317 59.931 35.577 59.9325 35.517C59.9338 35.4281 60.0116 35.3557 60.105 35.3557L62.8642 35.3681C63.69 35.3721 64.5157 35.3161 65.3271 35.1727C71.0411 34.1604 74.836 29.7683 74.9454 23.7929C75.0388 18.6932 72.0726 16.1085 66.1312 16.1085L66.1269 16.1112ZM64.7559 30.0115H64.6481C64.4064 30.0115 64.3632 29.9855 64.356 29.9773C64.3517 29.9718 65.9471 23.2505 65.9486 23.241C65.9888 23.047 65.9874 22.935 65.8622 22.8694C65.7025 22.7847 63.3735 21.6057 63.3735 21.6057C63.3173 21.577 63.2843 21.5224 63.2858 21.4623C63.2871 21.3748 63.3634 21.3024 63.457 21.3024H67.1397C68.2862 21.3366 68.925 22.3202 68.8948 24.0005C68.8416 26.9104 67.4 29.909 64.7559 30.0115Z" fill="#C9BCA8"/>
<path d="M70.2244 40.2915C71.053 40.2915 71.7017 39.6863 71.7017 38.8707C71.7017 38.0551 71.053 37.45 70.2244 37.45C69.3957 37.45 68.7397 38.0551 68.7397 38.8707C68.7397 39.6863 69.3942 40.2915 70.2244 40.2915ZM69.0921 38.8652C69.0921 38.1727 69.5252 37.7191 70.2244 37.7191C70.9234 37.7191 71.3493 38.1713 71.3493 38.8652C71.3493 39.5593 70.9234 40.0155 70.2244 40.0155C69.5252 40.0155 69.0921 39.5634 69.0921 38.8652ZM69.5756 39.6275H70.0459V39.0811H70.1827C70.535 39.0811 70.3812 39.5634 70.4675 39.6275H70.9551V39.6043C70.863 39.5811 71.0112 38.9759 70.6027 38.9117V38.9048C70.8013 38.8652 70.9292 38.7286 70.9292 38.5238C70.9292 38.23 70.7062 38.0715 70.3467 38.0715H69.5727V39.6275H69.5756ZM70.0459 38.7519V38.3871H70.207C70.3682 38.3871 70.4603 38.4349 70.4603 38.5688C70.4603 38.6917 70.3682 38.7505 70.207 38.7505H70.0459V38.7519Z" fill="#C9BCA8"/>
</g>
<defs>
<clipPath id="clip0_139_31">
<rect width="71" height="25" fill="white" transform="translate(4 15.6562)"/>
</clipPath>
</defs>
</svg>
