<svg width="50" height="37" viewBox="0 0 50 37" fill="none" xmlns="http://www.w3.org/2000/svg">
<g clip-path="url(#clip0_139_18)">
<path fill-rule="evenodd" clip-rule="evenodd" d="M43.042 21.2455C41.2923 21.2535 39.7786 21.6713 38.5091 22.2859C38.0412 21.37 37.5732 20.5707 37.4918 19.9721C37.4023 19.2772 37.2965 18.8554 37.4023 18.0239C37.5081 17.1964 37.9964 16.0195 37.9964 15.9231C37.9883 15.8347 37.8906 15.4129 36.8815 15.4009C35.8764 15.3928 35.0057 15.5937 34.908 15.8548C34.8104 16.1159 34.6151 16.7144 34.4889 17.329C34.3139 18.2368 32.4788 21.4464 31.4331 23.1335C31.0913 22.4787 30.7983 21.9003 30.7414 21.4383C30.6518 20.7434 30.546 20.3216 30.6518 19.4901C30.7576 18.6626 31.2459 17.4857 31.2459 17.3893C31.2378 17.3009 31.1401 16.8791 30.131 16.8671C29.126 16.859 28.2552 17.0599 28.1575 17.321C28.0599 17.5821 27.9541 18.1967 27.7384 18.7952C27.535 19.3937 25.0936 24.7523 24.4588 26.1502C24.1373 26.8652 23.8525 27.4316 23.6491 27.8172C23.4456 28.2028 23.6409 27.8453 23.6206 27.8855C23.4456 28.2149 23.348 28.3957 23.348 28.3957V28.4037C23.2096 28.6447 23.0631 28.8777 22.998 28.8777C22.9492 28.8777 22.8515 28.231 23.0184 27.3432C23.3805 25.4834 24.2594 22.5791 24.2472 22.4747C24.2472 22.4265 24.414 21.9163 23.6816 21.6552C22.9695 21.3941 22.7132 21.828 22.6562 21.828C22.5993 21.828 22.5504 21.9806 22.5504 21.9806C22.5504 21.9806 23.3398 18.7108 21.0368 18.7108C19.5923 18.7108 17.5984 20.2614 16.6137 21.6793C15.9871 22.0168 14.6606 22.7318 13.2527 23.491C12.7156 23.7802 12.1582 24.0895 11.6333 24.3667L11.5275 24.2502C8.73207 21.3218 3.56443 19.2411 3.78009 15.2884C3.8574 13.8503 4.36603 10.0624 13.7044 5.47502C21.3501 1.71517 27.4739 2.74752 28.54 5.04119C30.0537 8.31901 25.2685 14.4127 17.3177 15.2884C14.2903 15.6258 12.6994 14.4689 12.2965 14.0351C11.8774 13.5812 11.8164 13.5611 11.6618 13.6495C11.4095 13.7861 11.5641 14.1878 11.6618 14.4288C11.8978 15.0353 12.8743 16.1159 14.5345 16.6542C15.9912 17.1282 19.5434 17.3852 23.8403 15.7463C28.654 13.9066 32.4137 8.79301 31.311 4.52301C30.188 0.1807 22.8841 -1.24933 15.979 1.17288C11.8693 2.61898 7.41372 4.8765 4.2114 7.83698C0.40281 11.3438 -0.203473 14.4087 0.0488059 15.6821C0.93585 20.2252 7.27537 23.1817 9.81443 25.3709C9.68829 25.4392 9.57029 25.5075 9.4645 25.5637C8.19497 26.1823 3.36098 28.6768 2.14842 31.32C0.781228 34.3086 2.36407 36.4617 3.41795 36.7509C6.68129 37.6467 10.022 36.0359 11.8286 33.3847C13.6271 30.7335 13.4114 27.291 12.5814 25.7204L12.5529 25.6641L13.5498 25.0857C14.1927 24.7081 14.8275 24.3627 15.3849 24.0654C15.0716 24.9049 14.8478 25.8971 14.7298 27.3432C14.5915 29.0384 15.2954 31.2397 16.2231 32.1073C16.6341 32.4849 17.1224 32.4929 17.4235 32.4929C18.4977 32.4929 18.986 31.6172 19.5231 30.5648C20.1863 29.2834 20.7723 27.7971 20.7723 27.7971C20.7723 27.7971 20.0399 31.8181 22.0418 31.8181C22.7742 31.8181 23.5067 30.8821 23.8403 30.4001V30.4081C23.8403 30.4081 23.8607 30.38 23.8973 30.3117C23.938 30.2515 23.9787 30.1912 24.0153 30.127V30.1069C24.3082 29.6048 24.9634 28.4599 25.9399 26.5599C27.2013 24.1096 28.4098 21.0447 28.4098 21.0447C28.4098 21.0447 28.5278 21.7958 28.89 23.029C29.1056 23.7601 29.5735 24.5635 29.9357 25.3428C29.6427 25.7485 29.4678 25.9775 29.4678 25.9775L29.4759 25.9855C29.2399 26.2948 28.9795 26.6202 28.7028 26.9496C27.7059 28.1265 26.5136 29.4642 26.359 29.8498C26.1719 30.3037 26.2125 30.6411 26.5747 30.9103C26.8392 31.1031 27.3071 31.1432 27.8035 31.1031C28.7028 31.0468 29.3253 30.8219 29.6386 30.6893C30.1269 30.5166 30.6844 30.2555 31.2215 29.8699C32.1981 29.1549 32.7921 28.1426 32.7352 26.7929C32.7067 26.0498 32.4625 25.3187 32.1574 24.6238C32.2469 24.4992 32.3323 24.3747 32.4219 24.2381C33.964 22.0127 35.1562 19.5624 35.1562 19.5624C35.1562 19.5624 35.2742 20.3136 35.6364 21.5468C35.8235 22.1734 36.1938 22.8563 36.5234 23.5312C35.0789 24.6961 34.1715 26.0458 33.8582 26.9335C33.2804 28.5724 33.7321 29.3155 34.5825 29.4883C34.965 29.5646 35.5102 29.3919 35.9212 29.2191C36.4298 29.0544 37.0442 28.7773 37.6098 28.3595C38.5864 27.6445 39.5223 26.6523 39.4734 25.3147C39.445 24.6961 39.2781 24.0895 39.0543 23.5111C40.2832 23.0089 41.8782 22.7197 43.8965 22.9607C48.2422 23.4629 49.1007 26.1422 48.938 27.2589C48.7711 28.3756 47.8637 28.9942 47.5626 29.187C47.2615 29.3718 47.1639 29.436 47.1924 29.5726C47.2331 29.7735 47.3673 29.7654 47.6318 29.7253C47.994 29.669 49.9186 28.8094 49.9959 26.7447C50.1139 24.1096 47.5626 21.2174 43.042 21.2455ZM9.52553 32.4005C8.08917 33.9511 6.06687 34.5416 5.20831 34.0395C4.28058 33.5092 4.64272 31.2236 6.40867 29.5766C7.48289 28.5724 8.87856 27.6485 9.79816 27.0781C10.0016 26.9536 10.3149 26.7688 10.6852 26.5479C10.7422 26.5077 10.7829 26.4916 10.7829 26.4916C10.852 26.4515 10.9293 26.4033 11.0067 26.3551C11.6618 28.709 11.0392 30.7697 9.52553 32.4005ZM20.0236 25.3548C19.5272 26.5599 18.4692 29.657 17.8345 29.4802C17.2892 29.3356 16.9555 26.9937 17.7287 24.68C18.1193 23.5151 18.9494 22.1252 19.4376 21.587C20.227 20.7193 21.0897 20.4301 21.3012 20.7876C21.5576 21.2455 20.3369 24.5997 20.0236 25.3548ZM28.6865 29.4401C28.4708 29.5445 28.2755 29.6248 28.1901 29.5646C28.1209 29.5244 28.2796 29.3798 28.2796 29.3798C28.2796 29.3798 29.362 28.231 29.7933 27.7007C30.0374 27.3914 30.3304 27.0339 30.6437 26.6322V26.7487C30.6396 28.1386 29.2928 29.0665 28.6865 29.4401ZM35.3678 27.9377C35.2132 27.8212 35.2295 27.4637 35.7584 26.347C35.9619 25.9052 36.4339 25.162 37.2436 24.4591C37.3413 24.7483 37.3983 25.0295 37.3901 25.2866C37.3779 27.0219 36.1287 27.6686 35.3678 27.9377Z" fill="#C9BCA8"/>
</g>
<defs>
<clipPath id="clip0_139_18">
<rect width="50" height="37" fill="white"/>
</clipPath>
</defs>
</svg>
