<svg width="40" height="38" viewBox="0 0 40 38" fill="none" xmlns="http://www.w3.org/2000/svg">
<g clip-path="url(#clip0_19_639)">
<path d="M7.79199 0.575317H32.9795C36.7982 0.575317 39.8857 3.57959 39.8857 7.2954V30.8552C39.8857 34.571 36.7982 37.5753 32.9795 37.5753H7.79199C3.97324 37.5753 0.885742 34.571 0.885742 30.8552V7.2954C0.885742 3.57959 3.97324 0.575317 7.79199 0.575317Z" fill="#C9BCA8"/>
<path d="M19.7358 22.7121H13.6908L12.4558 26.4279C12.4233 26.5702 12.2933 26.6651 12.1471 26.6493H9.09206C8.91331 26.6493 8.86456 26.5544 8.91331 26.3646L14.1458 11.707C14.1946 11.5488 14.2433 11.3749 14.3083 11.1852C14.3733 10.8531 14.4058 10.5052 14.4058 10.1574C14.3896 10.0783 14.4546 9.99926 14.5358 9.98345H18.7446C18.8746 9.98345 18.9396 10.0309 18.9558 10.1099L24.8871 26.3963C24.9358 26.5702 24.8871 26.6493 24.7246 26.6493H21.3283C21.2146 26.6651 21.1008 26.586 21.0683 26.4753L19.7358 22.7121ZM14.6333 19.5023H18.7608C18.6633 19.1702 18.5333 18.7749 18.3871 18.3638C18.2408 17.9369 18.0946 17.4783 17.9483 17.004C17.7858 16.5138 17.6396 16.0394 17.4771 15.5493C17.3146 15.0591 17.1683 14.6005 17.0383 14.142C16.9083 13.6993 16.7946 13.2881 16.6808 12.9087H16.6483C16.5021 13.5886 16.3233 14.2685 16.0958 14.9484C15.8521 15.7074 15.6083 16.498 15.3483 17.2886C15.1208 18.095 14.8771 18.8381 14.6333 19.5023ZM28.5108 12.7505C27.9746 12.7664 27.4546 12.5608 27.0646 12.1971C26.6908 11.8018 26.4958 11.28 26.5121 10.7424C26.4958 10.2048 26.7071 9.69883 27.0971 9.33516C27.4871 8.97148 28.0071 8.78174 28.5433 8.78174C29.1771 8.78174 29.6646 8.97148 30.0221 9.33516C30.3796 9.71464 30.5746 10.2206 30.5583 10.7424C30.5746 11.28 30.3796 11.8018 29.9896 12.1971C29.6158 12.5766 29.0633 12.7822 28.5108 12.7505ZM26.6908 26.4753V14.3001C26.6908 14.142 26.7558 14.0787 26.9021 14.0787H30.1196C30.2658 14.0787 30.3308 14.1578 30.3308 14.3001V26.4753C30.3308 26.6493 30.2658 26.7283 30.1196 26.7283H26.9346C26.7721 26.7283 26.6908 26.6334 26.6908 26.4753Z" fill="#2A2724"/>
</g>
<defs>
<clipPath id="clip0_19_639">
<rect width="39" height="37" fill="white" transform="translate(0.885742 0.575317)"/>
</clipPath>
</defs>
</svg>
