<svg width="27" height="38" viewBox="0 0 27 38" fill="none" xmlns="http://www.w3.org/2000/svg">
<path fill-rule="evenodd" clip-rule="evenodd" d="M4.03914 13.362C2.13487 12.1212 0.875977 9.9729 0.875977 7.53051C0.875977 3.68927 3.98993 0.575317 7.83116 0.575317H19.7477C23.5889 0.575317 26.7028 3.68927 26.7028 7.53051C26.7028 9.9729 25.444 12.1212 23.5397 13.362C25.444 14.6029 26.7028 16.7512 26.7028 19.1935C26.7028 23.0348 23.5889 26.1487 19.7477 26.1487H19.6209C17.8051 26.1487 16.1518 25.4529 14.9131 24.3134V30.793C14.9131 34.6772 11.731 37.8116 7.86269 37.8116C4.02934 37.8116 0.875977 34.7056 0.875977 30.8565C0.875977 28.4141 2.13481 26.2658 4.03902 25.025C2.13481 23.7842 0.875977 21.6359 0.875977 19.1935C0.875977 16.7512 2.13487 14.6029 4.03914 13.362ZM14.9131 19.1935C14.9131 21.7936 17.0209 23.9013 19.6209 23.9013H19.7477C22.3477 23.9013 24.4554 21.7936 24.4554 19.1935C24.4554 16.5935 22.3477 14.4858 19.7477 14.4858H19.6209C17.0209 14.4858 14.9131 16.5935 14.9131 19.1935ZM12.6657 14.4858H7.83116C5.23114 14.4858 3.12344 16.5935 3.12344 19.1935C3.12344 21.7883 5.22264 23.8927 7.81534 23.9013H7.82272H12.6657V14.4858ZM7.83116 26.1487C7.82589 26.1487 7.82061 26.1487 7.81534 26.1487C5.22264 26.1572 3.12344 28.2617 3.12344 30.8565C3.12344 33.4486 5.25478 35.5642 7.86269 35.5642C10.5056 35.5642 12.6657 33.4202 12.6657 30.793V26.1487H7.83116ZM12.6657 12.2382H7.83116C5.23114 12.2382 3.12344 10.1305 3.12344 7.53051C3.12344 4.93048 5.23114 2.82278 7.83116 2.82278H12.6657V12.2382ZM19.7477 12.2382H14.9131V2.82278H19.7477C22.3477 2.82278 24.4554 4.93048 24.4554 7.53051C24.4554 10.1305 22.3477 12.2382 19.7477 12.2382Z" fill="#C9BCA8"/>
</svg>
