<svg width="46" height="38" viewBox="0 0 46 38" fill="none" xmlns="http://www.w3.org/2000/svg">
<g clip-path="url(#clip0_139_15)">
<path d="M5.07437 4.96608C4.98812 2.38245 6.92965 0 9.55398 0H36.4496C39.0739 0 41.0155 2.38245 40.9292 4.96608C40.8457 7.44819 40.9535 10.6624 41.7342 13.2842C42.5177 15.9134 43.8375 17.5759 46 17.7892V20.2108C43.8375 20.4241 42.5177 22.0866 41.7342 24.7158C40.9535 27.3376 40.8457 30.5518 40.9292 33.0339C41.0155 35.6175 39.0739 38 36.4496 38H9.55398C6.92965 38 4.98812 35.6175 5.07437 33.0339C5.15793 30.5518 5.04922 27.3376 4.26938 24.7158C3.48594 22.0866 2.16254 20.4241 0 20.2108V17.7892C2.16254 17.5759 3.48594 15.9134 4.26938 13.2842C5.04922 10.6624 5.15793 7.44819 5.07437 4.96608Z" fill="#C9BCA8"/>
<path fill-rule="evenodd" clip-rule="evenodd" d="M30.8076 23.3868C30.8076 26.9446 28.2471 29.1017 23.9975 29.1017H15.9834V8.89087H23.9561C27.4996 8.89087 29.8247 10.8793 29.8247 13.9324C29.8247 16.0755 28.2614 17.995 26.2678 18.3303V18.443C28.9811 18.7513 30.8076 20.6979 30.8076 23.3868ZM19.0839 26.5385V19.8857H23.1808C26.1151 19.8857 27.6379 21.0062 27.6379 23.1912C27.6379 25.3762 26.1573 26.5385 23.3614 26.5385H19.0839ZM19.0839 11.454H23.2086C25.4511 11.454 26.7242 12.4906 26.7242 14.3673C26.7242 16.3698 25.2436 17.4902 22.5582 17.4902H19.0839V11.454Z" fill="#2A2724"/>
</g>
<defs>
<clipPath id="clip0_139_15">
<rect width="46" height="38" fill="white"/>
</clipPath>
</defs>
</svg>
